<svg xmlns="http://www.w3.org/2000/svg" viewBox="0 0 64 64" role="img" aria-label="DrawStamp Studio">
  <rect width="64" height="64" rx="15" fill="#fff7ef"/>
  <path d="M15 13h34c1.66 0 3 1.34 3 3v32c0 1.66-1.34 3-3 3H15c-1.66 0-3-1.34-3-3V16c0-1.66 1.34-3 3-3Z" fill="#ff0015"/>
  <path d="M23 43A19 19 0 0 1 50.5 18.5" fill="none" stroke="#fff7ef" stroke-width="5.4" stroke-linecap="butt"/>
  <path d="M32 26h15v6h-9v17h-6V26Z" fill="#fff7ef"/>
  <path d="M38 49 48.2 32h-6.2L32 49h6Z" fill="#fff7ef"/>
  <path d="M20 49h11" stroke="#fff7ef" stroke-width="5.4" stroke-linecap="butt"/>
</svg>
